<?xml version="1.0" encoding="UTF-8"?>
<!-- Generated by Pixelmator Pro 3.4.1 -->
<svg width="140" height="140" viewBox="0 0 140 140" xmlns="http://www.w3.org/2000/svg">
    <g id="Gruppe" opacity="0.748">
        <path id="Pfad" fill="#ffffff" stroke="#ffffff" d="M 0.5 136.494995 C 1.226609 135.493027 2.437641 134.961502 3.667 135.104996 C 20.329666 135.141668 36.992666 135.149668 53.655998 135.128998 L 55.363998 135.128998 C 56.646999 130.865997 60.049999 129.468994 64.121002 128.815002 C 63.902 126.438995 63.763 124.136002 63.466999 121.852997 C 62.222 112.245995 60.801998 102.658997 59.695 93.035995 C 58.805 85.292007 58.175999 77.436005 60.423 69.845001 C 62.992001 61.170998 62.083 52.697998 60.085999 44.162003 C 60.031162 43.530556 59.553825 43.017357 58.928001 42.917 C 58.399567 42.821053 57.933392 42.5131 57.637791 42.064697 C 57.34219 41.616287 57.242905 41.066475 57.362999 40.542999 C 57.472267 39.439003 58.436932 38.6203 59.543999 38.692001 C 60.226002 38.671997 60.91 38.668999 61.592999 38.692001 C 63.216999 38.737999 63.912998 39.536003 63.993 41.172997 C 64.054291 42.028778 64.220535 42.873779 64.487999 43.689003 C 66.568001 50.561996 66.388 57.638 66.230003 64.681 C 66.186996 66.618996 65.255997 68.537994 64.736 70.465996 C 63.389339 75.681717 62.982986 81.095703 63.535999 86.453995 C 64.156998 93.287994 65.102997 100.093994 65.945 106.906998 C 66.302002 109.794998 66.790001 112.667999 67.130997 115.557999 C 67.236 116.449997 67.473 116.837997 68.442001 116.798996 C 70.249001 116.726997 72.060997 116.778999 73.980003 116.778999 C 74.147003 113.787994 74.320999 110.936996 74.461998 108.078995 C 74.867332 99.895665 75.263667 91.712001 75.651001 83.528 C 75.792 80.516006 76.195999 80.132996 79.185997 79.940994 C 83.89827 79.779572 88.337654 77.69075 91.466003 74.162994 C 96.614998 68.268997 101.527 62.168999 106.536003 56.152 C 106.606331 56.046944 106.663742 55.933792 106.707001 55.815002 L 101.088997 50.234001 L 91.668999 58.602997 C 89.219002 60.779999 86.801003 62.995003 84.295998 65.102997 C 83.675232 65.610603 82.911217 65.911316 82.111 65.962997 C 79.064003 66.062996 76.011002 66.019997 72.960999 65.999001 C 72.340828 66.078079 71.715996 65.892593 71.239426 65.487938 C 70.762848 65.083275 70.478516 64.496788 70.456001 63.871994 C 70.418999 62.544998 71.403 61.653999 72.984001 61.639999 C 75.168999 61.621002 77.359001 61.547997 79.538002 61.665001 C 80.93399 61.774155 82.308044 61.268288 83.300003 60.279999 C 84.430573 59.392975 85.075058 58.023537 85.038002 56.586998 C 84.959053 51.845497 85.644844 47.122261 87.069 42.598999 C 87.210342 42.170753 87.283569 41.722961 87.286003 41.272003 C 87.292 39.466003 88.005997 38.695999 89.824997 38.691002 C 95.106003 38.678001 100.388 38.650002 105.667999 38.712997 C 106.845497 38.835014 108.011543 38.394318 108.814003 37.524002 C 109.324997 36.949997 110.026001 36.540001 110.514 35.948997 C 110.974968 35.275551 111.381905 34.566673 111.731003 33.829002 L 109.554001 33.829002 C 83.148003 33.829002 56.742001 33.761002 30.337 33.890999 C 25.959908 33.976921 21.785986 32.047203 19.016001 28.656998 C 18.588068 28.266647 18.337839 27.718658 18.323118 27.139626 C 18.308395 26.560585 18.530457 26.000595 18.938 25.588997 C 19.774103 24.733353 21.1397 24.699646 22.017 25.513 C 22.090378 25.565094 22.15749 25.625496 22.216999 25.693001 C 24.764 28.986 28.201 29.584 32.172001 29.521004 C 43.459999 29.342003 54.751999 29.458 66.042999 29.458 L 67.654999 29.458 C 67.016998 27.982002 66.431999 26.710999 65.912003 25.413002 C 64.660408 22.470543 64.120781 19.274269 64.336998 16.084 C 64.461967 13.778282 65.494507 11.615768 67.209 10.069 C 68.354553 9.136215 68.980354 7.708527 68.889999 6.233994 C 68.95668 2.514069 72.02494 -0.448242 75.744919 -0.384201 C 79.46489 -0.320175 82.429382 2.745987 82.367996 6.466003 C 82.32431 7.802063 82.90004 9.083435 83.928001 9.938004 C 87.049004 12.843002 87.536003 16.618004 86.670998 20.522003 C 86.009003 23.511002 84.871002 26.393997 83.934998 29.362999 L 112.044998 29.362999 C 112.195999 28.396004 112.377998 27.420998 112.498001 26.440002 C 112.581909 24.854301 113.405754 23.400093 114.722771 22.512978 C 116.03978 21.62587 117.696991 21.408875 119.197998 21.927002 C 121.286873 22.407951 122.961281 23.96537 123.592003 26.014 C 123.784882 26.572571 123.94252 27.142693 124.064003 27.721001 C 124.166313 28.804359 124.905357 29.722069 125.942001 30.053001 C 127.474342 30.682365 128.435791 32.217636 128.332993 33.871002 C 128.373993 35.417999 128.367004 36.971001 128.341003 38.514 C 128.298004 41.014 126.764 42.888 124.278999 42.955002 C 122.916435 43.025452 121.678719 43.770699 120.978996 44.942001 C 118.266998 48.367996 115.616997 51.842003 112.856003 55.228996 C 107.189336 62.176999 101.489334 69.098333 95.755997 75.992996 C 91.814629 80.767227 86.128571 83.768143 79.962997 84.328003 C 79.163002 101.199997 78.357002 118.054001 77.543999 135.134995 L 79.433998 135.134995 C 98.737333 135.134995 118.040665 135.145996 137.343994 135.167999 C 138.229172 135.158066 139.093124 135.439133 139.802994 135.968002 C 140.871002 136.888 140.490997 138.194 139.011993 139.507996 L 0.5 139.507996 Z M 68.644997 18.228004 C 68.629997 21.028 69.925003 24.237 71.569 27.279999 C 73.203003 30.305 78.194 30.253998 79.714996 27.157997 C 80.868477 24.849548 81.751976 22.415817 82.348 19.904999 C 83.307999 15.698997 82.140999 13.329002 78.782997 11.591995 C 76.549828 10.499771 73.90641 10.664795 71.826424 12.026291 C 69.746429 13.387787 68.537529 15.744354 68.644997 18.228004 Z M 118.625 40.871002 C 116.181999 36.681 116.484001 34.236 119.818001 30.708 C 119.985001 30.530998 120.186996 30.224998 120.140999 30.036003 C 119.963219 29.008301 119.655769 28.007309 119.225998 27.056999 C 118.80265 26.564453 118.204666 26.255424 117.557999 26.195 C 117.375999 26.163002 116.876999 26.984001 116.797997 27.459999 C 116.332001 30.286003 116.013 33.137001 115.498001 35.952003 C 115.341621 36.870041 114.917946 37.721565 114.279999 38.400002 C 111.879997 40.699997 109.356003 42.858002 106.879997 45.07 C 106.080002 45.781998 105.288002 46.496002 104.746002 46.982002 L 109.803001 52.082001 Z M 67.851997 121.202995 C 68.091003 124.089996 68.347 126.846001 68.539001 129.602997 C 68.683998 131.688995 68.264 132.203003 66.182999 132.727997 C 64.863998 133.063995 63.527 133.347 62.234001 133.763992 C 61.5746 134.043152 60.943398 134.384705 60.348999 134.783997 L 60.493 135.037994 L 73.539001 135.037994 L 73.539001 121.202995 Z M 89.541 54.644997 L 102.487999 43.111 L 91.487999 43.111 C 90.205109 46.821411 89.547165 50.71907 89.541 54.644997 Z M 123.900002 38.580002 L 123.900002 33.905998 C 122.132004 34.056999 121.434998 34.787003 121.476997 36.363998 C 121.512001 37.850998 122.279999 38.559998 123.900002 38.580002 Z M 73.249001 6.593002 L 78 6.593002 C 77.689003 4.753998 76.884003 3.938995 75.527 4.009003 C 74.199997 4.080002 73.415001 4.945999 73.246002 6.593002 Z"/>
        <path id="path1" fill="#ffffff" stroke="#ffffff" d="M 29.868 43.044998 C 25.955 43.044998 22.042 43.097 18.129999 43.028999 C 14.755251 42.967262 11.931677 40.449631 11.485 37.103996 C 11.068996 33.912369 12.97718 30.874718 16.033001 29.863998 C 16.636108 29.661705 17.26244 29.536705 17.896999 29.492004 C 18.493568 29.423973 19.092525 29.597748 19.560045 29.97451 C 20.027563 30.351265 20.324677 30.899605 20.385 31.497002 C 20.485001 32.639 19.648001 33.472 18.385 33.849998 C 17.526266 34.041252 16.747282 34.492371 16.153999 35.141998 C 15.084 36.665001 16.389999 38.617996 18.444 38.666 C 20.809 38.721001 23.174999 38.681999 25.544001 38.681999 C 30.913 38.681999 36.280998 38.675003 41.650002 38.686996 C 43.349998 38.686996 44.396 39.731003 44.199001 41.144997 C 44.033001 42.334999 43.111 43.044998 41.613998 43.044998 C 37.701 43.059998 33.787998 43.050003 29.875999 43.050003 Z"/>
        <path id="path2" fill="#ffffff" stroke="#ffffff" d="M 52.941002 40.834999 C 52.952988 41.623787 52.537514 42.357391 51.854874 42.752785 C 51.172237 43.14817 50.329159 43.143524 49.650921 42.740639 C 48.972683 42.337746 48.565319 41.599602 48.585999 40.810997 C 48.606819 39.623604 49.583527 38.676399 50.771 38.692001 C 51.956345 38.698326 52.91983 39.649826 52.941002 40.834999 Z"/>
        <path id="path3" fill="#ffffff" stroke="#ffffff" d="M 67.851997 121.202995 L 73.539001 121.202995 L 73.539001 135.041 L 60.493 135.041 L 60.348999 134.787003 C 60.943413 134.387741 61.574615 134.046188 62.234001 133.766998 C 63.527 133.349991 64.863998 133.067001 66.182999 132.731003 C 68.264 132.201004 68.682999 131.692001 68.539001 129.604996 C 68.347 126.847 68.091003 124.089996 67.851997 121.202995 Z"/>
        <path id="path4" fill="#ffffff" stroke="#ffffff" d="M 123.896004 38.580002 C 122.279999 38.558998 121.512001 37.849998 121.473 36.363998 C 121.431 34.787003 122.127998 34.056999 123.896004 33.905998 Z"/>
        <path id="path5" fill="#ffffff" stroke="#ffffff" d="M 73.246002 6.593002 C 73.416 4.945007 74.195999 4.078003 75.525002 4.009003 C 76.882004 3.938995 77.686996 4.753998 77.998001 6.593002 Z"/>
    </g>
</svg>
