<?xml version="1.0" encoding="UTF-8"?>
<!-- Generated by Pixelmator Pro 3.4.1 -->
<svg width="162" height="162" viewBox="0 0 162 162" xmlns="http://www.w3.org/2000/svg">
    <g id="Gruppe" opacity="0.75">
        <path id="Pfad" fill="#ffffff" stroke="none" d="M 0 158.514999 C 0.837877 157.347443 2.245347 156.729187 3.672 156.901993 C 10.851 156.968002 18.032 156.931 25.212 156.931 L 27.091999 156.931 C 25.862 153.776993 24.674 150.75 23.5 147.716995 C 21.693001 143.050995 22.771999 139.700989 26.92 136.946991 C 32.02 133.560989 37.257 130.362 42.148998 126.701004 C 47.127998 122.973999 51.716 118.731003 56.549 114.809998 C 62.648998 109.862 68.848999 105.024994 74.959999 100.085999 C 75.407074 99.632584 75.648232 99.015396 75.626999 98.378998 C 75.502998 96.062004 75.198997 93.756004 75.027 91.441002 C 74.890999 89.566002 75.804001 88.389999 77.345001 88.295006 C 78.771004 88.208 79.864998 89.256004 80.053001 91.012001 C 80.316002 93.477005 80.512001 95.949005 80.752998 98.589005 C 83.427002 98.929993 86.082001 99.248993 88.731003 99.612 C 89.402061 99.627991 90.039268 99.909988 90.502335 100.395935 C 90.965401 100.881897 91.216377 101.531952 91.199997 102.203003 C 91.218796 103.422974 90.321434 104.463882 89.112 104.625 C 88.641182 104.69281 88.162605 104.685715 87.694 104.604004 C 85.705002 104.360992 83.719002 104.087006 81.730003 103.835999 C 81.219002 103.770996 80.702003 103.751999 80.222 103.714005 C 78.213997 109.339996 81.295998 116.063004 86.691002 117.994995 C 89.676598 119.046524 92.812996 119.606796 95.977997 119.653992 C 103.307999 119.826996 110.635002 120.207001 117.959999 120.559998 C 120.536003 120.684006 121.289001 121.638 121.032997 124.240997 C 120.754997 127.067001 120.419998 129.888992 120.098 132.827988 L 126.344002 132.827988 C 126.967003 129.878998 127.611 126.858994 128.244003 123.837006 C 128.513 122.546997 128.774994 121.253998 128.998993 119.955994 C 129.650742 116.712463 127.793205 113.489258 124.660004 112.427002 C 118.968338 110.33403 113.089104 108.791641 107.102997 107.820999 C 104.667999 107.378006 102.274002 106.707993 99.848999 106.207001 C 98.584824 105.967941 97.526367 105.107635 97.033997 103.918991 C 95.081001 99.869995 95.356003 95.703003 96.453003 91.547005 C 97.246002 88.547005 98.222 85.584999 99.245003 82.647003 C 100.259415 79.812485 99.8228 76.66098 98.075996 74.209 C 95.957001 70.909004 93.013 68.428001 89.975998 66.036003 C 89.065002 65.317001 88.120003 64.636002 87.185997 63.951004 C 86.315002 63.306999 85.594002 62.641998 84.269997 63.340004 C 83.112 63.951004 81.610001 62.862999 81.321999 61.477997 C 81.211861 60.801918 81.170319 60.11644 81.197998 59.431999 C 81.192001 42.698667 81.189336 25.962667 81.190002 9.223999 C 81.224403 8.538712 81.19091 7.8517 81.089996 7.173004 C 80.922981 5.847717 79.775116 4.86705 78.440002 4.908997 C 77.109161 4.841232 75.938553 5.780991 75.717003 7.095001 C 75.636002 7.395004 75.666 7.729004 75.596001 8.035995 C 75.369568 9.341736 74.203453 10.272568 72.879997 10.203995 C 71.545357 10.107285 70.534248 8.959167 70.607002 7.623001 C 70.379997 4.184998 73.207001 0.735001 76.892998 -0.042999 C 80.735077 -0.796722 84.539909 1.417267 85.782997 5.130005 C 86.106956 6.241806 86.26136 7.396133 86.240997 8.554001 C 86.286997 13.887334 86.286997 19.220668 86.240997 24.554001 C 86.234001 25.561005 86.453003 25.981003 87.580002 26.166 C 94.326828 27.17688 99.36779 32.89566 99.524002 39.716003 C 99.665001 43.776001 99.639999 47.847 99.539001 51.909004 C 99.429001 56.385002 97.045998 59.118004 91.723 60.966003 C 92.422997 61.524002 93.045998 61.951004 93.582001 62.471001 C 96.225998 65.037003 99.056999 67.449005 101.424004 70.250999 C 104.991997 74.476006 105.697998 79.369003 103.93 84.670006 C 102.780998 88.112 101.880997 91.637001 100.883003 95.129005 C 100.796364 95.489708 100.746445 95.858246 100.734001 96.229004 C 100.403999 100.668991 100.789001 101.209 105.042999 102.179001 C 112.023003 103.770004 119.112999 104.856995 125.862 107.444992 C 132.067993 109.824997 135.205994 115.199005 133.837997 121.733994 C 131.990667 130.557327 130.162999 139.384995 128.354996 148.216995 C 128.292007 148.516998 128.287003 148.834991 128.229004 149.389999 C 132.945007 150.269989 137.550003 151.43399 139.158005 156.934998 L 150.75 156.934998 C 153.389999 156.934998 156.029999 156.963989 158.669006 156.923996 C 160.132996 156.901993 161.445999 157.075989 162.026993 158.667999 C 162.589005 160.207993 161.597 161.112991 160.602997 162.003998 L 0 162.003998 Z M 115.806 125.514999 C 115.041 125.421997 114.523003 125.322006 114.005997 125.302994 C 108.154999 125.087006 102.296997 124.975998 96.453003 124.638 C 93.370003 124.459991 90.311996 123.865005 87.236 123.520004 C 86.580215 123.430511 85.912437 123.508606 85.294998 123.746994 C 79.322998 126.395996 73.377998 129.103989 67.419998 131.785995 C 58.328999 135.877991 49.332001 140.138 41.070999 145.799988 C 40.063999 146.48999 39.487 147.018997 39.845001 148.411987 C 40.425426 150.658661 40.826683 152.947845 41.044998 155.257996 C 41.186001 156.785995 41.876999 156.957993 43.162998 156.951996 C 65.696331 156.920664 88.232666 156.912999 110.772003 156.929001 L 112.171997 156.929001 C 112.086746 155.49025 112.096436 154.047455 112.200996 152.610001 C 112.801003 148.335999 113.619003 144.090988 114.190002 139.809998 C 114.815002 135.121994 115.261002 130.403992 115.806 125.518005 Z M 49.540001 134.488998 L 80.384003 120.332993 C 76.283997 116.707993 74.792 112.005997 74.563004 106.811005 C 74.300003 106.850998 74.233002 106.841003 74.197998 106.869995 C 65.472 114.112661 56.754 121.365662 48.043999 128.628998 C 47.761784 128.949722 47.650246 129.3862 47.743999 129.802994 C 48.286999 131.388992 48.933998 132.940994 49.540001 134.488998 Z M 36.089001 156.92099 C 36.053001 156.401001 36.057999 155.991989 35.988998 155.593994 C 35.488998 152.636002 35.056999 149.660995 34.425999 146.729996 C 33.972569 145.209824 34.709602 143.588104 36.153 142.929993 C 38.853001 141.287994 41.511002 139.576996 44.141998 137.830002 C 44.514 137.584 44.933998 136.882996 44.832001 136.543991 C 44.401001 135.108994 43.779999 133.731995 43.169998 132.182999 C 38.289001 135.446991 33.556999 138.582993 28.857 141.774002 C 27.779417 142.467255 27.376467 143.847946 27.912001 145.011993 C 29.011999 147.968002 30.129 150.925995 31.378 153.821991 C 32.203308 155.691208 34.045792 156.9048 36.089001 156.924988 Z M 119.653999 138.097992 C 119.578354 138.20517 119.517159 138.321838 119.472 138.444992 C 118.710002 143.43366 117.951335 148.422994 117.195999 153.412994 C 116.949669 154.299713 117.159134 155.25087 117.755157 155.952087 C 118.351189 156.65329 119.25618 157.01326 120.170998 156.912994 C 124.123001 156.94899 128.076004 156.927002 132.029007 156.92099 C 132.466003 156.92099 132.903 156.86499 133.339996 156.835999 L 133.460999 156.389999 C 132.463623 155.890106 131.43634 155.452271 130.384995 155.078995 C 128.570007 154.544998 126.705002 154.184998 124.871002 153.709 C 124.127937 153.599396 123.468994 153.172745 123.064926 152.539597 C 122.660858 151.906433 122.55143 151.129089 122.764999 150.408997 C 122.959 149.375 123.184998 148.345993 123.394997 147.315002 L 125.272003 138.097992 Z M 94.475998 40.306 C 92.111 41.306 89.900002 42.372002 87.594002 43.160004 C 86.602997 43.499001 86.226997 43.860001 86.246002 44.871002 C 86.295998 47.456001 86.264999 50.042999 86.266998 52.628998 C 86.266998 55.717003 86.266998 55.719002 89.394997 55.849998 C 89.816437 55.876984 90.239319 55.871964 90.660004 55.834999 C 92.709274 55.732079 94.346786 54.092407 94.446999 52.042999 C 94.545998 48.096001 94.475998 44.140999 94.475998 40.310997 Z M 86.416 31.110992 L 86.416 38.250999 C 88.824837 37.753387 90.972725 36.402077 92.463997 34.445999 C 90.96257 32.585983 88.790619 31.390121 86.416 31.115997 Z"/>
        <path id="path1" fill="#ffffff" stroke="none" d="M 70.596001 43.713997 C 69.487999 43.421997 68.546997 43.253998 67.665001 42.926003 C 63.966171 41.607567 61.878422 37.690704 62.846001 33.884995 C 63.349625 31.947479 64.012894 30.055008 64.829002 28.227005 C 65.901871 25.945419 67.991508 24.306412 70.462997 23.807999 C 71.035004 19.608002 70.258003 15.960007 66.932999 13.029999 C 64.914001 11.251007 64.764999 9.690002 66.088997 8.479004 C 67.376999 7.300995 68.637001 7.699997 70.555 9.514999 C 74.082207 12.785156 75.975121 17.452774 75.722 22.255997 C 75.557999 34.814003 75.674004 47.376999 75.652 59.937004 C 75.51664 61.153442 75.925026 62.367615 76.767998 63.254997 C 77.187187 63.72644 77.448997 64.316826 77.516998 64.944 C 77.765999 66.772003 77.935997 68.612999 78.060997 70.454002 C 78.238281 71.823395 77.271889 73.077217 75.902496 73.254501 C 74.533112 73.431786 73.279282 72.465393 73.101997 71.096001 C 72.981323 70.421074 72.901184 69.739517 72.862 69.055 C 72.803818 67.537514 72.389671 66.054962 71.653 64.727005 C 70.994171 63.475113 70.647346 62.082657 70.641998 60.667999 C 70.528 55.604004 70.596001 50.536003 70.596001 45.468002 Z M 70.496002 38.314003 L 70.496002 29.248001 C 70.139 29.522003 69.841003 29.630997 69.768997 29.824005 C 68.97007 31.69754 68.301811 33.624146 67.768997 35.590004 C 67.428001 37.113998 68.640999 38.131004 70.491997 38.308998 Z"/>
        <path id="path2" fill="#ffffff" stroke="none" d="M 76.566002 83.443001 C 75.165405 83.431953 74.038956 82.287598 74.050003 80.887001 C 74.061043 79.486412 75.205406 78.359955 76.606003 78.371002 C 77.979691 78.418877 79.065407 79.551994 79.054565 80.926468 C 79.043724 82.300949 77.940269 83.416801 76.566002 83.443001 Z"/>
        <path id="path3" fill="#ffffff" stroke="none" d="M 70.491997 38.307999 C 68.640999 38.129997 67.428001 37.108002 67.763 35.584 C 68.295822 33.618149 68.964088 31.691544 69.763 29.817993 C 69.834999 29.625 70.133003 29.518005 70.489998 29.242004 Z"/>
    </g>
</svg>
