<?xml version="1.0" encoding="UTF-8"?>
<!-- Generated by Pixelmator Pro 3.4.1 -->
<svg width="146" height="143" viewBox="0 0 146 143" xmlns="http://www.w3.org/2000/svg">
    <g id="Gruppe" opacity="0.857">
        <path id="Pfad" fill="#ffffff" stroke="none" d="M -0 122.700996 C 0.844 119.780998 2.909 117.971001 5.387 116.380997 C 10.549 113.068001 15.748 109.781006 20.667 106.132996 C 25.282 102.708008 29.539 98.804001 33.983002 95.147003 C 40.263 89.977005 46.497002 84.747009 52.891998 79.725998 C 56.467999 76.917999 60.645 74.917 63.917999 71.658997 C 64.333092 71.213333 64.918205 70.96534 65.527122 70.976974 C 66.13604 70.988617 66.711243 71.258797 67.109001 71.720001 C 67.548965 72.169205 67.779678 72.782768 67.744675 73.410568 C 67.709663 74.038368 67.412178 74.62249 66.925003 75.019997 C 65.153999 76.603996 63.257999 78.047997 61.483002 79.628006 C 60.921082 80.10495 60.510338 80.735306 60.300999 81.442001 C 59.497559 84.803253 59.862591 88.337891 61.335999 91.464005 C 62.4389 93.923187 64.481567 95.837631 67.007004 96.779007 C 70.713554 98.136749 74.63475 98.814285 78.582001 98.779007 C 86.181999 98.940994 93.781998 99.406998 101.382004 99.805008 C 103.441002 99.912994 104.124001 100.805008 103.906998 102.912003 C 103.571999 106.171005 103.167 109.423004 102.764 112.918999 C 105.164001 112.918999 107.463997 112.945999 109.764 112.877998 C 110.000999 112.870995 110.357002 112.322998 110.43 111.977997 C 111.351997 107.606995 112.276001 103.237 113.109001 98.848999 C 113.945999 95.093216 111.751106 91.325989 108.070999 90.201996 C 102.859795 88.258926 97.478867 86.805649 91.998001 85.861008 C 89.797997 85.514008 87.642998 84.861008 85.445999 84.471008 C 81.425072 83.760315 77.3965 83.093613 73.361 82.471008 C 71.620003 82.197006 70.641998 81.238007 70.842003 79.845001 C 71.042 78.451996 72.231003 77.718994 73.975998 77.945 C 75.398735 78.043152 76.813667 78.23288 78.211998 78.513 C 80.165947 78.988052 82.229782 78.534912 83.805 77.284996 C 87.086998 75.096001 90.488998 73.084999 93.783997 70.917999 C 97.900986 68.130836 101.27948 64.385506 103.628998 60.003998 C 105.014587 57.949928 105.145561 55.296539 103.969002 53.115997 C 103.385223 53.924767 102.757965 54.701241 102.089996 55.442001 C 100.806 56.717003 99.457001 56.794998 98.481003 55.756996 C 97.504997 54.719002 97.681 53.419998 98.961998 52.137001 C 112.520668 38.573667 126.080668 25.011668 139.641998 11.451004 C 140.058182 11.060608 140.448349 10.643387 140.809998 10.201996 C 141.966599 8.769562 141.878357 6.70076 140.604004 5.371994 C 139.301773 4.0009 137.181458 3.816422 135.662003 4.942001 C 135.156555 5.360138 134.576263 5.678452 133.951996 5.880005 C 132.976746 6.102005 131.985641 5.577972 131.619995 4.647003 C 131.123688 3.724686 131.364929 2.578888 132.190994 1.934998 C 134.208145 -0.125122 137.201981 -0.895538 139.962997 -0.065002 C 142.872986 0.598038 145.163574 2.839935 145.889008 5.735001 C 146.683426 8.447693 145.987381 11.37825 144.057999 13.444 C 143.557999 14.018005 143.005997 14.544006 142.468002 15.083 C 131.230001 26.323001 119.984001 37.556333 108.730003 48.782997 C 107.953354 49.344872 107.753304 50.416824 108.275002 51.221001 C 109.810234 54.410919 109.7341 58.141373 108.07 61.265999 C 105.714661 66.183205 102.175484 70.438797 97.769997 73.651001 C 94.779999 75.834999 91.582001 77.735001 88.478996 79.764999 C 88.292 79.887009 88.124001 80.039001 87.694 80.374008 C 91.334 81.084 94.758003 81.561996 98.073997 82.445999 C 102.352928 83.529663 106.566177 84.857849 110.693001 86.423996 C 116.07 88.542999 118.760002 94.268997 117.546997 100.162003 C 115.536997 109.936 113.517331 119.708003 111.487999 129.478012 C 111.450996 129.659012 111.431999 129.844009 111.382004 130.178009 C 112.765999 130.542007 114.114998 130.947998 115.482002 131.24501 C 118.987167 131.859741 121.890541 134.312729 123.082001 137.666 C 123.409172 138.106979 123.92202 138.371719 124.471001 138.383011 C 130.561996 138.431 136.653 138.414001 142.744003 138.415009 C 145.076996 138.415009 146.166 139.138 146.177994 140.689011 C 146.190002 142.240005 145.100006 142.983002 142.778 142.983002 C 96.284668 142.983002 49.791335 142.991669 3.298 143.009003 C 2.016976 143.15184 0.757626 142.597351 -0.002 141.556 L -0.002 139.835999 C 1.198 137.869003 3.298 138.580002 5.054 138.35701 C 4.508 137.098007 4.011 136.026001 3.574 134.930008 C 2.369 131.907013 1.188 128.874008 -0.002 125.846001 Z M 99.150002 104.218994 C 98.731003 104.166 98.458 104.111008 98.184998 104.100006 C 91.297997 103.828003 84.405998 103.654999 77.527 103.251999 C 74.420998 103.070007 71.344002 102.415009 68.248001 102.018005 C 67.66243 101.907288 67.058167 101.949997 66.494003 102.141998 C 59.077999 105.447006 51.694 108.818008 44.280998 112.134995 C 35.211163 116.068756 26.514317 120.811943 18.296 126.306999 C 17.879 126.592995 17.263 127.137001 17.313999 127.473999 C 17.865999 131.115005 18.534 134.738998 19.160999 138.322998 L 95.789001 138.322998 C 94.625 135.838013 95.105003 133.484009 95.813004 131.123001 C 96.017441 130.440948 96.163628 129.742783 96.25 129.036011 C 96.920664 123.516668 97.578664 117.995664 98.223999 112.473 C 98.543999 109.751999 98.837997 107.025009 99.150002 104.218994 Z M 27.988001 114.706001 L 61.787998 99.184006 C 56.908001 95.106995 55.243 89.798996 55.278 83.565994 C 54.508999 84.138 53.966 84.509995 53.459 84.925995 C 50.297001 87.514999 47.125999 90.093002 43.991001 92.714996 C 38.124335 97.624329 32.274001 102.555664 26.440001 107.509003 C 26.015003 107.865479 25.776012 108.3965 25.791 108.951004 C 26.441 110.923004 27.257999 112.841995 27.988001 114.706001 Z M 24.049 117.206001 L 21.634001 111.068001 C 16.347 114.598999 11.208 118.013 6.091 121.460999 C 4.817888 122.161674 4.236691 123.679131 4.716 125.050995 C 5.93 128.443008 7.199 131.822998 8.651 135.119003 C 9.655841 137.358154 12.063628 138.617645 14.476 138.166 C 13.833 134.430008 13.239 130.680008 12.522 126.953995 C 12.145559 125.582413 12.809599 124.138733 14.096 123.531998 C 17.408001 121.492996 20.663 119.364998 24.049999 117.204994 Z M 118.113998 138.406006 L 118.390999 137.783005 C 117.350052 137.041489 116.23671 136.407242 115.068001 135.889999 C 112.959999 135.185013 110.755997 134.772003 108.599998 134.20401 C 106.723999 133.710007 106.18 132.878006 106.524002 130.975006 C 106.823997 129.34201 107.200996 127.723991 107.532997 126.097 C 108.107002 123.284996 108.672997 120.470001 109.254997 117.597 L 102.541 117.597 C 101.570999 123.325996 100.598999 128.925003 99.683998 134.533005 C 99.526031 135.487061 99.792801 136.462524 100.414307 137.2034 C 101.035812 137.94429 101.950005 138.376648 102.917 138.387009 C 104.672997 138.449005 106.432999 138.403 108.190002 138.404007 Z"/>
        <path id="path1" fill="#ffffff" stroke="none" d="M 87.484001 6.380005 C 93.488998 3.834 99.054001 4.292007 104.084 8.341003 C 109.221001 12.475006 109.810997 18.233002 109.25 24.596001 C 109.620758 24.336494 109.978218 24.058479 110.320999 23.763 C 113.286331 20.808334 116.24633 17.848333 119.200996 14.882996 C 122.477318 11.695236 124.40522 7.371613 124.586998 2.804001 C 124.602997 2.472 124.612999 2.136993 124.658997 1.804001 C 124.684937 1.202637 124.949081 0.636292 125.393143 0.22995 C 125.837204 -0.176407 126.424698 -0.389389 127.026001 -0.362 C 127.629219 -0.33696 128.196701 -0.069168 128.599518 0.380539 C 129.002335 0.830246 129.206268 1.423676 129.164993 2.026001 C 129.192474 4.982315 128.613907 7.912918 127.464996 10.636993 C 126.290001 13.453979 124.566582 16.009193 122.394997 18.153999 C 112.839663 27.708 103.286997 37.261335 93.737 46.814003 C 92.436996 48.113998 91.129997 48.306999 90.115997 47.387001 C 89.624794 46.957497 89.34433 46.335838 89.347397 45.683342 C 89.350471 45.030853 89.636772 44.411858 90.132004 43.987 C 91.154999 42.941002 92.274002 41.987 93.632004 40.737999 L 88.544998 37.999001 C 87.745003 40.415001 87.178001 42.783997 86.205002 44.973999 C 84.011002 49.913002 81.630997 54.774002 79.295998 59.644997 C 79.12249 60.178757 78.739868 60.619293 78.235664 60.865837 C 77.731461 61.112381 77.148811 61.143829 76.621002 60.953003 C 75.843483 60.577507 75.245773 59.910072 74.958 59.096001 C 74.912071 58.349289 75.132469 57.610497 75.580002 57.011002 C 78.481102 52.098648 80.839302 46.885323 82.612999 41.462997 C 83.241 39.521667 83.807668 37.561002 84.313004 35.581001 C 84.437111 35.060921 84.342789 34.512703 84.052002 34.064003 C 81.384827 30.889229 79.751862 26.975006 79.372002 22.846001 C 78.772003 22.756004 78.171997 22.68 77.579002 22.576004 C 75.260849 22.238167 73.213509 20.885674 71.993195 18.885971 C 70.772888 16.886276 70.506355 14.447052 71.265999 12.231003 C 71.710999 10.830994 72.242996 9.453995 72.721001 8.061996 C 73.602768 5.099243 76.168633 2.949417 79.239998 2.600006 C 82.228752 2.065903 85.257393 3.304077 87.015999 5.779007 Z M 86.301003 29.379997 C 86.628998 28.596001 86.864998 28.040001 87.094002 27.480003 C 87.873001 25.580002 89.014999 24.889999 90.401001 25.480003 C 91.787003 26.07 92.085999 27.324997 91.314003 29.263 L 89.662003 33.405998 C 91.307999 34.225998 92.818001 34.997002 94.344002 35.733002 C 96.344002 36.697998 98.143997 36.718002 99.500999 34.612999 C 99.7397 34.315529 100.007713 34.042824 100.301003 33.798996 C 101.767998 32.309998 103.809998 31.055 104.542 29.264999 C 105.293999 27.426003 104.777 25.065002 104.799004 22.93 C 104.814003 21.445 104.799004 19.959999 104.799004 18.193001 L 103.649002 19.126999 C 100.72319 21.538353 97.040245 22.839775 93.249001 22.802002 C 92.693382 22.852203 92.141754 22.670273 91.725021 22.299377 C 91.308289 21.928482 91.063591 21.401688 91.049004 20.844002 C 90.932693 20.297745 91.044296 19.727676 91.358009 19.26561 C 91.671715 18.803535 92.160378 18.489464 92.710999 18.396004 C 93.222267 18.294495 93.740349 18.230988 94.261002 18.206001 C 97.617073 17.959991 100.694168 16.247482 102.671997 13.524994 C 99.516396 9.361069 93.769897 8.168549 89.218002 10.733002 C 88.822426 11.033768 88.529968 11.449921 88.380997 11.923996 C 87.250999 15.016998 86.822998 18.435997 84.165001 20.806999 C 84.030685 20.939964 83.950813 21.118256 83.941002 21.306999 C 83.890778 24.1735 84.713898 26.987442 86.301003 29.375 Z M 84.211998 10.542007 C 84.011971 8.929321 82.872017 7.590073 81.311996 7.134995 C 79.63131 6.69455 77.881927 7.553696 77.203003 9.153 C 76.575996 10.684998 76.044998 12.259995 75.554001 13.841003 C 75.08168 15.351105 75.772453 16.981094 77.185997 17.692001 C 78.641998 18.492004 80.777 18.292 81.532997 16.904999 C 82.539391 14.831833 83.433678 12.706116 84.211998 10.537003 Z"/>
        <path id="path2" fill="#ffffff" stroke="none" d="M 74.271004 66.073997 C 74.249474 67.501778 73.147209 68.679779 71.723999 68.795998 C 71.125923 68.815926 70.544571 68.596687 70.108589 68.186798 C 69.672615 67.776901 69.417961 67.210159 69.401001 66.612 C 69.478653 65.194489 70.565857 64.038887 71.975998 63.875 C 72.574188 63.854202 73.155396 64.07605 73.587578 64.490158 C 74.01976 64.904266 74.266235 65.475464 74.271004 66.073997 Z"/>
        <path id="path3" fill="#ffffff" stroke="none" d="M 84.210999 10.537003 C 83.432198 12.704437 82.537575 14.828491 81.530998 16.900002 C 80.775002 18.291 78.639999 18.488998 77.183998 17.687004 C 75.770447 16.976097 75.079681 15.346107 75.552002 13.835999 C 76.042999 12.255005 76.573997 10.679993 77.200996 9.147995 C 77.881584 7.550262 79.629539 6.691818 81.309998 7.130005 C 82.870407 7.584747 84.010811 8.924057 84.210999 10.537003 Z"/>
    </g>
    <text id="Text" xml:space="preserve" x="-179" y="-638" font-family="Helvetica" font-size="288" fill="#ffffff">Text</text>
</svg>
